<?xml version="1.0" encoding="UTF-8"?>
<!DOCTYPE svg PUBLIC "-//W3C//DTD SVG 1.1//EN" "http://www.w3.org/Graphics/SVG/1.1/DTD/svg11.dtd">
<!-- Creator: CorelDRAW 2018 (64-Bit) -->
<svg xmlns="http://www.w3.org/2000/svg" xml:space="preserve" width="111.325mm" height="111.325mm" version="1.1" style="shape-rendering:geometricPrecision; text-rendering:geometricPrecision; image-rendering:optimizeQuality; fill-rule:evenodd; clip-rule:evenodd"
viewBox="0 0 11106.1 11106.1"
 xmlns:xlink="http://www.w3.org/1999/xlink">
 <defs>
  <style type="text/css">
   <![CDATA[
    .str0 {stroke:#373435;stroke-width:19.95;stroke-miterlimit:22.9256}
    .fil0 {fill:#0098DA}
    .fil2 {fill:#F58634;fill-rule:nonzero}
    .fil1 {fill:#A8CF45;fill-rule:nonzero}
   ]]>
  </style>
 </defs>
 <g id="Layer_x0020_1">
  <metadata id="CorelCorpID_0Corel-Layer"/>
  <rect class="fil0 str0" x="9.98" y="9.98" width="11086.15" height="11086.15"/>
  <g id="_2037966238000">
   <path class="fil1" d="M115.76 4595l0 -2384.67c0,-416.89 124.87,-751.12 375.56,-1001.81 249.76,-250.67 583.08,-376.48 999.05,-376.48 415.04,0 731.84,122.12 951.3,365.46 219.46,243.33 329.65,594.1 329.65,1050.46l0 2347.03 -1090.87 0 0 -2347.03c0,-220.38 -79.89,-330.56 -240.58,-330.56 -155.18,0 -233.24,110.19 -233.24,330.56l0 2347.03 -1090.87 0z"/>
   <path id="1" class="fil1" d="M4527.92 1978.01l0 2616.99 -1090.88 0 0 -3674.81 1420.52 0c623.49,0 1111.99,141.4 1465.52,425.15 419.63,339.74 628.99,799.79 628.99,1381.96 0,556.45 -179.06,1010.06 -538.09,1361.75 -358.12,351.68 -819.99,527.99 -1384.71,527.99 -66.11,0 -174.47,-3.67 -325.06,-11.01l0 -1079.85 174.47 0c636.34,0 954.97,-266.3 954.97,-797.95 0,-500.45 -313.12,-750.21 -938.44,-750.21l-367.3 0z"/>
   <path id="2" class="fil1" d="M9951.98 2799.84l1144.13 29.38c-75.3,593.19 -280.98,1051.39 -615.23,1374.61 -335.15,323.22 -771.32,484.83 -1309.41,484.83 -547.27,0 -1005.48,-183.64 -1374.61,-550.02 -368.21,-367.3 -552.78,-822.74 -552.78,-1366.34 0,-547.28 188.23,-1007.32 563.8,-1380.12 376.48,-373.73 839.28,-560.13 1390.22,-560.13 541.76,0 994.46,182.73 1356.25,548.19 251.59,252.52 429.74,605.12 533.5,1055.98l-1170.77 78.97c-131.31,-398.52 -380.15,-597.78 -747.44,-597.78 -234.15,0 -426.99,80.81 -579.41,241.5 -151.51,161.62 -227.73,366.38 -227.73,615.23 0,239.66 74.38,438 224.06,594.1 149.67,157.02 337.91,235.07 566.55,235.07 232.32,0 416.88,-68.87 554.62,-207.53 137.73,-138.65 219.46,-336.99 244.25,-595.93z"/>
   <path class="fil2" d="M1719.88 8870.08l0 -992.73c226.91,0 340.37,-86.04 340.37,-259.05 0,-157.88 -86.98,-237.31 -261.9,-237.31 -176.8,0 -265.67,108.72 -265.67,325.24l0 2471.42 -1123.2 0 0 -2355.12c0,-243.93 24.58,-443.43 73.74,-599.43 48.22,-156 132.37,-300.66 250.54,-435.85 133.31,-149.38 299.71,-267.56 499.2,-353.6 199.49,-86.98 405.6,-130.47 617.38,-130.47 384.8,0 708.15,129.52 969.09,387.64 261.89,258.11 392.37,578.61 392.37,960.58 0,371.57 -117.24,672.22 -351.71,902.91 -213.67,212.72 -537.01,318.61 -968.14,318.61l-172.08 -2.83z"/>
   <path id="1" class="fil2" d="M7602.5 6393.93l0 2724.79c0,341.31 -102.11,618.33 -307.27,832.95 -205.16,214.62 -469.89,322.4 -795.13,322.4 -391.42,0 -690.18,-178.7 -897.24,-537.02 -127.64,192.87 -264.72,330.91 -410.32,413.17 -146.54,82.25 -326.18,123.86 -540.79,123.86 -340.37,0 -601.31,-107.78 -782.84,-322.4 -180.58,-214.62 -271.35,-523.79 -271.35,-926.55l0 -2631.2 1123.2 0 0 2461.96c0,122.91 9.46,203.28 29.31,242.03 19.85,38.77 59.56,58.62 120.07,58.62 112.5,0 168.29,-93.6 168.29,-281.74l0 -2480.87 1123.2 0 0 2461.96c0,119.13 10.4,198.55 30.25,239.2 20.8,40.65 60.52,61.45 120.07,61.45 111.56,0 167.34,-100.21 167.34,-300.66l0 -2461.96 1123.2 0z"/>
   <path id="2" class="fil2" d="M9650.35 8277.28l0 998.4 -323.34 0 0 901.97 -1123.2 0 0 -2406.18c0,-464.22 126.69,-825.38 381.01,-1082.55 254.33,-257.16 611.72,-385.74 1072.15,-385.74 444.36,0 772.43,116.29 985.16,349.82 212.72,233.52 318.62,592.8 318.62,1079.7l0 2444.95 -1123.2 0 0 -2370.26c0,-145.59 -17.97,-245.82 -52.94,-302.54 -35.93,-55.79 -99.27,-84.15 -190.99,-84.15 -177.75,0 -266.62,128.58 -266.62,386.69l0 469.89 323.34 0z"/>
  </g>
 </g>
</svg>
